# xmcd
#
# Track frame offsets: 
#        150
#        30975
#        59940
#        84732
#        114512
#        137740
#        159577
#        184752
#        207337
#        240200
#
# Disc length: 3482 seconds
#
# Revision: 0
# Processed by: cddbd v1.5.2PL0 Copyright (c) Steve Scherf et al.
# Submitted via: ExactAudioCopy v1.0b3
#
DISCID=850d980a
DTITLE=Duy Khanh - Bao Gio Em Quen
DYEAR=2002
DGENRE=
TTITLE0=Mau tim hoa sim
TTITLE1=Dua em vao ha
TTITLE2=Khoi tinh Truong Chi
TTITLE3=Bao gio em quen
TTITLE4=Que ngheo
TTITLE5=Linh xa nha
TTITLE6=Loi ve dat Me
TTITLE7=Vung ngoai o
TTITLE8=Ve mien Trung
TTITLE9=Mua nua dem
EXTD=
EXTT0=
EXTT1=
EXTT2=
EXTT3=
EXTT4=
EXTT5=
EXTT6=
EXTT7=
EXTT8=
EXTT9=
PLAYORDER=
